<svg xmlns="http://www.w3.org/2000/svg" viewBox="0 0 60 40" role="img" aria-label="Flamuri i Kosoves">
  <rect width="60" height="40" fill="#244aa5"/>
  <g fill="#fff">
    <polygon points="14,9 14.8,11 17,11 15.2,12.2 16,14.2 14,13 12,14.2 12.8,12.2 11,11 13.2,11"/>
    <polygon points="20.5,7.8 21.3,9.8 23.5,9.8 21.7,11 22.5,13 20.5,11.8 18.5,13 19.3,11 17.5,9.8 19.7,9.8"/>
    <polygon points="27.2,7.1 28,9.1 30.2,9.1 28.4,10.3 29.2,12.3 27.2,11.1 25.2,12.3 26,10.3 24.2,9.1 26.4,9.1"/>
    <polygon points="32.8,7.1 33.6,9.1 35.8,9.1 34,10.3 34.8,12.3 32.8,11.1 30.8,12.3 31.6,10.3 29.8,9.1 32,9.1"/>
    <polygon points="39.5,7.8 40.3,9.8 42.5,9.8 40.7,11 41.5,13 39.5,11.8 37.5,13 38.3,11 36.5,9.8 38.7,9.8"/>
    <polygon points="46,9 46.8,11 49,11 47.2,12.2 48,14.2 46,13 44,14.2 44.8,12.2 43,11 45.2,11"/>
  </g>
  <path fill="#f5c542" d="M18 17.4l5.8-2.5 3 1.8 3.2-1.4 2.8 1.4 2.7-1.1 6.5 2.7-1 4.5-5.7 3.8H25l-5.9-3.8z"/>
</svg>
